<svg width="25" height="25" viewBox="0 0 25 25" fill="none" xmlns="http://www.w3.org/2000/svg">
<path d="M5.40111 18.3778H19.8189C20.3145 18.3778 20.72 17.9723 20.72 17.4767C20.72 16.981 20.3145 16.5755 19.8189 16.5755H5.40111C4.9055 16.5755 4.5 16.981 4.5 17.4767C4.5 17.9723 4.9055 18.3778 5.40111 18.3778ZM5.40111 13.8722H19.8189C20.3145 13.8722 20.72 13.4667 20.72 12.9711C20.72 12.4755 20.3145 12.07 19.8189 12.07H5.40111C4.9055 12.07 4.5 12.4755 4.5 12.9711C4.5 13.4667 4.9055 13.8722 5.40111 13.8722ZM4.5 8.46556C4.5 8.96117 4.9055 9.36667 5.40111 9.36667H19.8189C20.3145 9.36667 20.72 8.96117 20.72 8.46556C20.72 7.96995 20.3145 7.56445 19.8189 7.56445H5.40111C4.9055 7.56445 4.5 7.96995 4.5 8.46556Z" fill="#202122"/>
</svg>
